Coordinates
version=1
nRows=12
nColumns=24
inDegrees=yes

Units are S.I. units (second, meters, Newtons, ...)
Angles are in degrees.

endheader
time	pelvis_tilt	pelvis_list	pelvis_rotation	pelvis_tx	pelvis_ty	pelvis_tz	hip_flexion_r	hip_adduction_r	hip_rotation_r	knee_angle_r	ankle_angle_r	subtalar_angle_r	mtp_angle_r	hip_flexion_l	hip_adduction_l	hip_rotation_l	knee_angle_l	ankle_angle_l	subtalar_angle_l	mtp_angle_l	lumbar_extension	lumbar_bending	lumbar_rotation
      0.01000000	     62.81080400	    -16.77921933	      5.36486263	      0.53224029	      0.95446787	     -0.23728642	      1.31533195	    -10.05935621	    -20.54511481	    -59.96831778	    -17.39460988	      0.00000000	      0.00000000	     23.86487777	    -12.34186733	     14.50180517	    -15.08074493	    -35.87824881	      0.00000000	      0.00000000	      0.00000000	      0.00000000	      0.00000000
      0.02000000	     62.80672253	    -16.75092952	      5.34792126	      0.53228793	      0.95458325	     -0.23717369	      1.29588834	    -10.07883912	    -20.52806108	    -59.96751992	    -17.39632206	      0.00000000	      0.00000000	     23.84371702	    -12.34337494	     14.54157761	    -15.06853062	    -35.88986720	      0.00000000	      0.00000000	      0.00000000	      0.00000000	      0.00000000
      0.03000000	     62.81111375	    -16.73021602	      5.33240843	      0.53229732	      0.95463919	     -0.23715721	      1.28124173	    -10.09781084	    -20.51133683	    -59.96561754	    -17.39728129	      0.00000000	      0.00000000	     23.82684973	    -12.34574561	     14.57690579	    -15.05706538	    -35.89762998	      0.00000000	      0.00000000	      0.00000000	      0.00000000	      0.00000000
      0.04000000	     62.82022549	    -16.71468520	      5.32020703	      0.53228289	      0.95466346	     -0.23717897	      1.27071348	    -10.11292051	    -20.49705320	    -59.96427496	    -17.39759529	      0.00000000	      0.00000000	     23.81541473	    -12.35060362	     14.60423880	    -15.04697290	    -35.89850967	      0.00000000	      0.00000000	      0.00000000	      0.00000000	      0.00000000
      0.05000000	     62.82965211	    -16.70431678	      5.31273753	      0.53225840	      0.95467225	     -0.23718737	      1.26401381	    -10.12099558	    -20.48743319	    -59.96487973	    -17.39744164	      0.00000000	      0.00000000	     23.80907231	    -12.35757618	     14.61990693	    -15.03912834	    -35.88937908	      0.00000000	      0.00000000	      0.00000000	      0.00000000	      0.00000000
      0.06000000	     62.83630006	    -16.70064483	      5.31009771	      0.53223353	      0.95466332	     -0.23715652	      1.26085464	    -10.12086267	    -20.48350656	    -59.96787446	    -17.39711409	      0.00000000	      0.00000000	     23.80647277	    -12.36547142	     14.62223477	    -15.03390302	    -35.86846544	      0.00000000	      0.00000000	      0.00000000	      0.00000000	      0.00000000
      0.07000000	     62.84015746	    -16.70313158	      5.31075306	      0.53221267	      0.95464160	     -0.23710502	      1.26022646	    -10.11371085	    -20.48430950	    -59.97277651	    -17.39704487	      0.00000000	      0.00000000	     23.80699496	    -12.37535833	     14.61288589	    -15.03043133	    -35.83638532	      0.00000000	      0.00000000	      0.00000000	      0.00000000	      0.00000000
      0.08000000	     62.84377531	    -16.70847468	      5.31189904	      0.53219470	      0.95462678	     -0.23707053	      1.26049146	    -10.10163119	    -20.48716710	    -59.97858648	    -17.39772696	      0.00000000	      0.00000000	     23.81024073	    -12.39046428	     14.59616934	    -15.02722606	    -35.79645025	      0.00000000	      0.00000000	      0.00000000	      0.00000000	      0.00000000
      0.09000000	     62.84972879	    -16.71425374	      5.31049438	      0.53217316	      0.95462498	     -0.23704964	      1.26010600	    -10.08623411	    -20.48847867	    -59.98408918	    -17.39954334	      0.00000000	      0.00000000	     23.81363496	    -12.41277722	     14.57679995	    -15.02376713	    -35.75410064	      0.00000000	      0.00000000	      0.00000000	      0.00000000	      0.00000000
      0.10000000	     62.85931949	    -16.72101267	      5.30407414	      0.53214034	      0.95462352	     -0.23700571	      1.25806997	    -10.06844035	    -20.48459136	    -59.98810908	    -17.40262885	      0.00000000	      0.00000000	     23.81241657	    -12.44143406	     14.55804684	    -15.02101355	    -35.71553616	      0.00000000	      0.00000000	      0.00000000	      0.00000000	      0.00000000
      0.11000000	     62.87325709	    -16.73026565	      5.29093315	      0.53209406	      0.95461483	     -0.23693472	      1.25396083	    -10.04885705	    -20.47289685	    -59.98986947	    -17.40685669	      0.00000000	      0.00000000	     23.80259019	    -12.47428438	     14.54128943	    -15.02034805	    -35.68599910	      0.00000000	      0.00000000	      0.00000000	      0.00000000	      0.00000000
      0.12000000	     62.89199790	    -16.74241667	      5.27047455	      0.53203761	      0.95460157	     -0.23687239	      1.24799079	    -10.02851878	    -20.45280816	    -59.98910392	    -17.41187357	      0.00000000	      0.00000000	     23.78334019	    -12.50944473	     14.52658301	    -15.02240435	    -35.66844445	      0.00000000	      0.00000000	      0.00000000	      0.00000000	      0.00000000
